<svg width="82" height="57" viewBox="0 0 52 27" fill="none" xmlns="http://www.w3.org/2000/svg">
<rect width="51.4058" height="26.0809" rx="13.0404" fill="white"/>
<path d="M30.2264 20.7892H33.5934V5.6698H30.2264V20.7892ZM35.2754 5.6698V20.7892H36.0472V5.6698H35.2754ZM13.8991 20.7892H14.6711V5.6698H13.8991V20.7892ZM12.2515 20.7892H13.0231V5.6698H12.2515V20.7892ZM7.93766 20.7892H11.3044V5.6698H7.93766V20.7892ZM21.3844 20.7892H22.1566V5.6698H21.3844V20.7892ZM43.4519 20.7892H44.2241V5.6698H43.4519V20.7892ZM41.8046 20.7892H42.576V5.6698H41.8046V20.7892ZM22.7145 20.7892H26.0811V5.6698H22.7145V20.7892ZM37.4905 20.7892H40.8571V5.6698H37.4905V20.7892ZM26.9006 20.7892H28.5496V5.6698H26.9006V20.7892ZM19.249 20.7892H20.8976V5.6698H19.249V20.7892ZM15.8826 20.7892H17.531V5.6698H15.8826V20.7892Z" fill="#1E1B1B"/>
<path d="M30.4389 18.2225C30.6592 18.3983 30.6825 18.6958 30.491 18.8867L30.1442 19.2328C29.9526 19.4239 29.6188 19.4362 29.3985 19.2604L25.5439 16.1838C25.3235 16.0079 25.5275 15.892 25.7191 15.7009L26.0659 15.3548C26.2574 15.1638 26.364 14.97 26.5843 15.1459L30.4389 18.2225" fill="#8CEFCB"/>
<path d="M25.2659 10.0179L25.2659 10.0179C26.7475 11.3209 26.8736 13.5555 25.5491 15.0113C24.2224 16.4696 21.9423 16.5949 20.4582 15.2898C18.9767 13.9868 18.8506 11.7521 20.175 10.2963C21.5017 8.83807 23.7819 8.71275 25.2659 10.0179ZM26.5166 15.8735L26.3364 15.7095L26.5166 15.8734C28.3249 13.8857 28.1515 10.832 26.1307 9.0548L25.9853 9.22009L26.1307 9.0548C24.1123 7.27976 21.0137 7.44897 19.2075 9.43422C17.3992 11.4219 17.5726 14.4757 19.5934 16.2529C21.6118 18.0279 24.7105 17.8586 26.5166 15.8735Z" fill="#8CEFCB" stroke="#8CEFCB" stroke-width="0.5"/>
</svg>
